# Blender 4.3.0
# www.blender.org
o Cube
v -0.004000 -0.004000 -0.004000
v 0.004000 -0.004000 0.004000
v 0.004000 -0.002600 0.004000
v 0.004000 -0.004000 -0.004000
v 0.004000 -0.002600 -0.004000
v 0.007192 -0.004000 0.004000
v 0.007192 -0.002600 0.004000
v 0.007192 -0.004000 -0.004000
v 0.007192 -0.002600 -0.004000
v -0.007192 -0.004000 0.004000
v -0.007192 -0.002600 0.004000
v -0.007192 -0.004000 -0.004000
v -0.007192 -0.002600 -0.004000
v -0.004000 -0.004000 0.004000
v -0.004000 -0.002600 0.004000
v -0.004000 -0.002600 -0.004000
v 0.003400 0.010000 -0.004000
v 0.004000 0.009400 -0.004000
v 0.003585 0.009971 -0.004000
v 0.003753 0.009885 -0.004000
v 0.003885 0.009753 -0.004000
v 0.003971 0.009585 -0.004000
v 0.004000 0.009400 0.004000
v 0.003400 0.010000 0.004000
v 0.003971 0.009585 0.004000
v 0.003885 0.009753 0.004000
v 0.003753 0.009885 0.004000
v 0.003585 0.009971 0.004000
v -0.004000 0.009400 -0.004000
v -0.003400 0.010000 -0.004000
v -0.003971 0.009585 -0.004000
v -0.003885 0.009753 -0.004000
v -0.003753 0.009885 -0.004000
v -0.003585 0.009971 -0.004000
v -0.003400 0.010000 0.004000
v -0.004000 0.009400 0.004000
v -0.003585 0.009971 0.004000
v -0.003753 0.009885 0.004000
v -0.003885 0.009753 0.004000
v -0.003971 0.009585 0.004000
v 0.002386 0.008562 0.004000
v 0.002386 0.008562 -0.004000
v -0.002386 -0.001419 0.004000
v -0.002386 -0.001419 -0.004000
v -0.002386 0.008562 0.004000
v -0.002386 0.008562 -0.004000
v 0.002386 -0.001419 0.004000
v 0.002386 -0.001419 -0.004000
v 0.002908 -0.004000 0.004000
v -0.002908 -0.004000 0.004000
v 0.002908 -0.004000 -0.004000
v -0.002908 -0.004000 -0.004000
vn -0.0000 -0.0000 1.0000
vn -0.0000 1.0000 -0.0000
vn -0.0000 -1.0000 -0.0000
vn -0.0000 -0.0000 -1.0000
vn -1.0000 -0.0000 -0.0000
vn 1.0000 -0.0000 -0.0000
vn 0.1564 0.9877 -0.0000
vn 0.4540 0.8910 -0.0000
vn 0.7071 0.7071 -0.0000
vn 0.8910 0.4540 -0.0000
vn 0.9877 0.1564 -0.0000
vn -0.1564 0.9877 -0.0000
vn -0.4540 0.8910 -0.0000
vn -0.7071 0.7071 -0.0000
vn -0.8910 0.4540 -0.0000
vn -0.9877 0.1564 -0.0000
vn 0.9802 -0.1980 -0.0000
vn -0.9802 -0.1980 -0.0000
vt 0.375000 0.750000
vt 0.606250 0.750000
vt 0.612044 0.750918
vt 0.617271 0.753581
vt 0.621419 0.757729
vt 0.624082 0.762956
vt 0.625000 0.768750
vt 0.625000 0.981250
vt 0.624082 0.987044
vt 0.621419 0.992271
vt 0.617271 0.996419
vt 0.612044 0.999082
vt 0.606250 1.000000
vt 0.375000 1.000000
vt 0.375000 0.965871
vt 0.419781 0.949573
vt 0.596051 0.949573
vt 0.596051 0.800427
vt 0.419781 0.800427
vt 0.375000 0.784130
vt 0.643750 0.500000
vt 0.856250 0.500000
vt 0.856250 0.750000
vt 0.643750 0.750000
vt 0.125000 0.500000
vt 0.159129 0.500000
vt 0.159129 0.750000
vt 0.125000 0.750000
vt 0.375000 0.250000
vt 0.606250 0.250000
vt 0.612044 0.250918
vt 0.617271 0.253581
vt 0.621419 0.257729
vt 0.624082 0.262956
vt 0.625000 0.268750
vt 0.625000 0.481250
vt 0.624082 0.487044
vt 0.621419 0.492271
vt 0.617271 0.496419
vt 0.612044 0.499082
vt 0.606250 0.500000
vt 0.375000 0.500000
vt 0.375000 0.465871
vt 0.419781 0.449573
vt 0.596051 0.449573
vt 0.596051 0.300427
vt 0.419781 0.300427
vt 0.375000 0.284129
vt 0.375000 0.000000
vt 0.625000 0.000000
vt 0.625000 0.250000
vt 0.625000 0.500000
vt 0.625000 0.750000
vt 0.625000 1.000000
vt 0.875000 0.500000
vt 0.875000 0.750000
vt 0.637956 0.750000
vt 0.637956 0.500000
vt 0.632729 0.750000
vt 0.632729 0.500000
vt 0.617271 0.750000
vt 0.617271 0.500000
vt 0.612044 0.750000
vt 0.612044 0.500000
vt 0.862044 0.500000
vt 0.862044 0.750000
vt 0.617271 0.250000
vt 0.617271 0.000000
vt 0.612044 0.250000
vt 0.612044 0.000000
vt 0.606250 0.000000
vt 0.440500 0.519781
vt 0.440500 0.730219
vt 0.625000 0.730219
vt 0.625000 0.519781
vt 0.440500 0.230219
vt 0.440500 0.019781
vt 0.392783 0.019781
vt 0.392783 0.230219
vt 0.392783 0.519781
vt 0.392783 0.730219
vt 0.625000 0.230219
vt 0.625000 0.019781
vt 0.340871 0.750000
vt 0.340871 0.500000
vt 0.875000 0.730219
vt 0.875000 0.519781
s 0
f 2/1/1 23/2/1 25/3/1 26/4/1 27/5/1 28/6/1 24/7/1 35/8/1 37/9/1 38/10/1 39/11/1 40/12/1 36/13/1 14/14/1 50/15/1 43/16/1 45/17/1 41/18/1 47/19/1 49/20/1
f 17/21/2 30/22/2 35/23/2 24/24/2
f 1/25/3 52/26/3 50/27/3 14/28/3
f 1/29/4 29/30/4 31/31/4 32/32/4 33/33/4 34/34/4 30/35/4 17/36/4 19/37/4 20/38/4 21/39/4 22/40/4 18/41/4 4/42/4 51/43/4 48/44/4 42/45/4 46/46/4 44/47/4 52/48/4
f 2/49/5 3/50/5 5/51/5 4/29/5
f 4/29/4 5/51/4 9/52/4 8/42/4
f 8/42/6 9/52/6 7/53/6 6/1/6
f 6/1/1 7/53/1 3/54/1 2/14/1
f 4/25/3 8/42/3 6/1/3 2/28/3
f 9/52/2 5/55/2 3/56/2 7/53/2
f 10/49/5 11/50/5 13/51/5 12/29/5
f 12/29/4 13/51/4 16/52/4 1/42/4
f 1/42/6 16/52/6 15/53/6 14/1/6
f 14/1/1 15/53/1 11/54/1 10/14/1
f 12/25/3 1/42/3 14/1/3 10/28/3
f 16/52/2 13/55/2 11/56/2 15/53/2
f 17/21/7 24/24/7 28/57/7 19/58/7
f 19/58/8 28/57/8 27/59/8 20/60/8
f 20/60/9 27/59/9 26/61/9 21/62/9
f 21/62/10 26/61/10 25/63/10 22/64/10
f 22/64/11 25/63/11 23/2/11 18/41/11
f 4/42/6 18/41/6 23/2/6 2/1/6
f 35/23/12 30/22/12 34/65/12 37/66/12
f 37/66/13 34/65/13 33/55/13 38/56/13
f 38/50/14 33/51/14 32/67/14 39/68/14
f 39/68/15 32/67/15 31/69/15 40/70/15
f 40/70/16 31/69/16 29/30/16 36/71/16
f 14/49/5 36/71/5 29/30/5 1/29/5
f 48/72/5 47/73/5 41/74/5 42/75/5
f 44/76/17 43/77/17 50/78/17 52/79/17
f 47/73/18 48/72/18 51/80/18 49/81/18
f 43/77/6 44/76/6 46/82/6 45/83/6
f 49/84/3 51/85/3 4/42/3 2/1/3
f 42/75/3 41/74/3 45/86/3 46/87/3
